<?xml version="1.0" encoding="utf-8"?>
<!-- Generator: Adobe Illustrator 19.2.1, SVG Export Plug-In . SVG Version: 6.00 Build 0)  -->
<svg version="1.1" id="layer" xmlns="http://www.w3.org/2000/svg" xmlns:xlink="http://www.w3.org/1999/xlink" x="0px" y="0px"
	 viewBox="0 0 652 652" style="enable-background:new 0 0 652 652;" xml:space="preserve">
<style type="text/css">
	.st0{fill:#EA550A;}
	.st1{fill:#282D7F;}
</style>
<path class="st0" d="M120,374.5c-2.6,0-4.7-2-4.7-4.4v-29.6c0-2.4,2.1-4.4,4.7-4.4h25.1V316c0-2.4,2.1-4.4,4.7-4.4h5.5l-13.6-34.5
	c-6.4-16.7-26.7-27-41.8-27c-2.6,0-4.6-2-4.6-4.4c0-2.4,2.1-4.4,4.6-4.4c18.7,0,42.7,12.2,50.6,32.7l15.9,40.3
	c0.5,1.3,0.3,2.8-0.5,4c-0.9,1.2-2.3,1.9-3.8,1.9h-7.5v20.2c0,2.4-2.1,4.4-4.7,4.4h-25.1v25.2C124.7,372.5,122.6,374.5,120,374.5
	 M124.7,292.6c-1.9-13.7-9.7-23.8-22.7-29.3c-8.8-3.7-17-4-18.5-4.1c-1.7-0.1-13.6-0.9-26.1,2.5c-18.3,5-28.9,16.5-30.5,33.1
	c-0.2,1.3-1,7.1,1.3,14.4c2.3,7.2,8.2,17.1,23.3,23.6c10.9,4.7,17.7,13.8,20.3,26.8c2,10.2,0.5,19.1,0.5,19.2c0,0,0,0.1,0,0.1
	c0,0.1-1.7,11.9-5.7,26.6c-0.7,2.4,0.8,4.9,3.2,5.6c0.4,0.1,0.8,0.2,1.2,0.2c2,0,3.8-1.3,4.4-3.3c4-14.9,5.7-26.5,5.9-27.6
	c0.2-1,1.7-10.8-0.5-22.1c-3.1-16.1-11.9-27.7-25.6-33.7c-22.2-9.7-19.5-27.2-19.3-28.2l0,0c0,0,0,0,0,0c0-0.1,0-0.2,0-0.2
	c0-0.1,0-0.1,0-0.2c1.2-12.8,9.1-21.4,23.7-25.4c11.6-3.2,23.2-2.3,23.3-2.3c0.1,0,0.3,0,0.4,0c1.2,0,28.9,0.5,32.4,25.6
	c0.8,5.9-0.4,10.6-3.7,14.5c-8.7,10.3-28.6,11.1-28.9,11.1c-2.5,0.1-4.5,2.2-4.4,4.7c0.1,2.5,2.1,4.4,4.5,4.4c0,0,0.1,0,0.1,0
	c1,0,24.2-0.9,35.5-14.3C123.9,308.3,125.8,301,124.7,292.6"/>
<path class="st1" d="M96.4,385.9h5.7v25.9h-5.7V385.9z M131.1,389c-0.6-0.7-1.2-1.3-1.9-1.8c-0.7-0.5-1.4-0.9-2.2-1.2
	c-0.8-0.3-1.5-0.5-2.3-0.6c-0.8-0.1-1.6-0.2-2.3-0.2c-2,0-3.9,0.3-5.6,1c-1.7,0.6-3.2,1.5-4.4,2.7c-1.2,1.2-2.2,2.6-2.9,4.3
	c-0.7,1.7-1,3.6-1,5.6c0,2.1,0.3,3.9,1,5.6c0.7,1.7,1.7,3.1,2.9,4.3c1.2,1.2,2.7,2.1,4.4,2.7c1.7,0.6,3.6,1,5.6,1
	c1.8,0,3.5-0.4,5.2-1.1c1.7-0.7,3.1-1.9,4.2-3.4l-4.7-3.5c-0.6,0.9-1.3,1.6-2.2,2c-0.9,0.5-1.9,0.7-3.1,0.7c-1,0-2-0.2-2.9-0.6
	c-0.9-0.4-1.7-1-2.3-1.7c-0.7-0.7-1.2-1.6-1.6-2.6c-0.4-1-0.6-2.1-0.6-3.3c0-1.2,0.2-2.3,0.6-3.3c0.4-1,0.9-1.9,1.6-2.6
	s1.5-1.3,2.4-1.7c0.9-0.4,1.9-0.6,3-0.6s2,0.2,2.8,0.5c0.8,0.4,1.5,0.9,2.1,1.6L131.1,389z M137.4,411.8h5.7v-19.8h0.1l6.5,19.8h4.3
	l6.8-19.8h0.1v19.8h5.7v-25.9h-8.6l-6,16.9H152l-6-16.9h-8.6V411.8z M240.5,338.4h-12.8v72.9h12.8V338.4z M268.1,380.6
	c0-4.3,1.1-7.6,3.4-9.9c2.2-2.4,5.2-3.6,8.8-3.6c3.7,0,6.5,1.2,8.5,3.5c2,2.3,3,5.6,3,9.8v30.9h12.6v-34.7c0-6.4-1.7-11.5-5-15.3
	c-3.4-3.8-8.1-5.7-14.3-5.7c-2.1,0-4,0.3-5.7,0.8c-1.7,0.5-3.2,1.2-4.6,2.1c-1.4,0.9-2.6,1.9-3.7,3.1c-1.1,1.1-2,2.4-2.9,3.7v-8.6
	h-12.6v54.6h12.6V380.6z M355.2,402.7c1-2.1,1.5-4.7,1.5-7.5V395c0-2.5-0.5-4.6-1.5-6.3c-1-1.7-2.4-3.2-4-4.4
	c-1.6-1.2-3.4-2.2-5.4-3c-2-0.8-4-1.6-6-2.2c-1.6-0.5-3.1-1-4.6-1.5c-1.5-0.5-2.8-1.1-3.9-1.7c-1.1-0.6-2-1.2-2.7-2
	c-0.7-0.7-1-1.6-1-2.5v-0.2c0-1.6,0.7-2.9,2-3.9c1.4-1,3.2-1.5,5.6-1.5c2.3,0,4.8,0.5,7.4,1.4c2.7,0.9,5.3,2.2,8,3.8l5-8.9
	c-2.9-1.9-6.1-3.4-9.6-4.5c-3.5-1.1-7-1.7-10.4-1.7c-2.7,0-5.2,0.4-7.6,1.1c-2.4,0.8-4.5,1.9-6.2,3.3c-1.8,1.5-3.1,3.2-4.1,5.3
	c-1,2.1-1.5,4.4-1.5,6.9v0.2c0,2.6,0.5,4.8,1.5,6.6c1,1.8,2.4,3.2,4,4.4c1.6,1.2,3.4,2.2,5.5,2.9c2,0.8,4,1.4,6.1,2.1
	c1.6,0.5,3.1,1,4.6,1.4c1.5,0.4,2.8,1,3.9,1.6c1.1,0.6,2,1.3,2.7,2c0.7,0.8,1,1.6,1,2.7v0.2c0,1.8-0.7,3.2-2.2,4.3
	c-1.5,1.1-3.6,1.6-6.2,1.6c-2.8,0-5.8-0.6-8.8-1.7c-3.1-1.1-6.1-2.8-9-5l-5.6,8.5c3.4,2.7,7.2,4.7,11.2,6.1c4,1.4,8,2.1,11.9,2.1
	c2.8,0,5.5-0.4,8-1.1c2.5-0.7,4.6-1.8,6.5-3.2C352.7,406.6,354.2,404.8,355.2,402.7 M368.7,396.2c0,3,0.4,5.6,1.1,7.6
	c0.8,2,1.9,3.7,3.3,4.9c1.4,1.2,3.1,2.1,5.1,2.7c1.9,0.6,4,0.8,6.3,0.8c2.3,0,4.4-0.2,6.2-0.7c1.8-0.5,3.5-1.2,5.1-2.1v-10.2
	c-2.5,1.2-5.1,1.9-7.8,1.9c-2.1,0-3.8-0.5-5-1.6c-1.2-1.1-1.8-2.8-1.8-5.2v-26.8H396v-10.6h-14.7V344h-12.6V396.2z M410.5,348.4H424
	v-10.9h-13.5V348.4z M411,411.3h12.6v-54.6H411V411.3z M438.1,396.2c0,3,0.4,5.6,1.1,7.6c0.8,2,1.9,3.7,3.3,4.9
	c1.4,1.2,3.1,2.1,5.1,2.7c1.9,0.6,4,0.8,6.3,0.8c2.3,0,4.4-0.2,6.2-0.7c1.8-0.5,3.5-1.2,5.1-2.1v-10.2c-2.5,1.2-5.1,1.9-7.8,1.9
	c-2.1,0-3.8-0.5-5-1.6c-1.2-1.1-1.8-2.8-1.8-5.2v-26.8h14.7v-10.6h-14.7V344h-12.6V396.2z M513.6,387.4c0,4.3-1.1,7.6-3.4,9.9
	c-2.2,2.4-5.2,3.6-8.8,3.6c-3.7,0-6.5-1.1-8.5-3.4c-2-2.3-3-5.6-3-9.8v-30.9h-12.6v34.7c0,6.4,1.7,11.5,5,15.3
	c3.4,3.8,8.1,5.7,14.3,5.7c4.2,0,7.6-1,10.3-2.9c2.7-1.9,4.9-4.2,6.7-6.8v8.6h12.6v-54.6h-12.6V387.4z M540.2,396.2
	c0,3,0.4,5.6,1.1,7.6c0.8,2,1.9,3.7,3.3,4.9c1.4,1.2,3.1,2.1,5.1,2.7c1.9,0.6,4,0.8,6.3,0.8c2.3,0,4.4-0.2,6.2-0.7
	c1.8-0.5,3.5-1.2,5.1-2.1v-10.2c-2.5,1.2-5.1,1.9-7.8,1.9c-2.1,0-3.8-0.5-5-1.6c-1.2-1.1-1.8-2.8-1.8-5.2v-26.8h14.7v-10.6h-14.7
	V344h-12.6V396.2z M591.7,398.5c-2.8-2.4-4.6-5.8-5.4-10.3h40.1c0.1-0.6,0.1-1.2,0.2-1.8c0-0.5,0.1-1.1,0.1-1.7
	c0-3.9-0.6-7.7-1.7-11.3c-1.1-3.6-2.7-6.7-4.9-9.4c-2.2-2.7-4.9-4.8-8.2-6.4c-3.3-1.6-7.1-2.4-11.4-2.4c-3.9,0-7.5,0.8-10.7,2.3
	c-3.2,1.5-6.1,3.6-8.4,6.1c-2.4,2.6-4.2,5.6-5.5,9c-1.3,3.4-2,7.1-2,11.1c0,4.3,0.7,8.1,2.2,11.6c1.5,3.5,3.4,6.5,6,8.9
	c2.5,2.5,5.5,4.4,8.9,5.8c3.4,1.4,7.1,2.1,11,2.1c5,0,9.4-0.9,13-2.8c3.6-1.9,6.7-4.3,9.4-7.4l-7.3-6.5c-2.2,2.1-4.4,3.8-6.7,4.8
	c-2.3,1.1-5,1.7-8.1,1.7C598,402.1,594.5,400.9,591.7,398.5 M586.2,380c0.5-4.3,2.1-7.7,4.6-10.4c2.5-2.7,5.7-4,9.6-4
	c2.1,0,3.9,0.4,5.5,1.1c1.6,0.8,3,1.8,4.2,3c1.2,1.3,2.1,2.8,2.8,4.5c0.7,1.8,1.1,3.6,1.4,5.6H586.2z M308.4,278.3h9V271h-9V278.3z
	 M308.7,320.3h8.4v-36.7h-8.4V320.3z M198.5,320.3h8.6v-15.7h9.7c10.7,0,19.5-5.7,19.5-16.6v-0.1c0-9.8-7.1-16.3-18.5-16.3h-19.2
	V320.3z M207.1,297v-17.5h10c6.4,0,10.5,3,10.5,8.7v0.1c0,5.1-4,8.7-10.5,8.7H207.1z M265.5,287.2c2.7,2.6,4,6.5,4,11.3v21.8h-8.2
	v-4.6c-2.5,3-6.3,5.4-12,5.4c-6.9,0-13-4-13-11.3v-0.1c0-7.9,6.2-11.8,15.2-11.8c4.1,0,7,0.6,9.9,1.5v-0.9c0-5.2-3.2-8-9.1-8
	c-4.1,0-7.1,0.9-10.5,2.3c0.9-2.4,1.4-5.1,1.5-8c2.9-1,6.1-1.5,10.1-1.5C258.8,283.1,262.9,284.6,265.5,287.2 M261.5,304.6
	c-2.2-0.8-5-1.5-8.4-1.5c-5.4,0-8.6,2.3-8.6,6.1v0.1c0,3.5,3.1,5.6,7.2,5.6c5.6,0,9.8-3.2,9.8-7.9V304.6z M279.6,320.3h8.4v-14
	c0-9.7,5.1-14.5,12.5-14.5h0.5v-8.9c-6.5-0.3-10.7,3.5-13,9v-8.3h-8.4V320.3z M324.1,315.5c4.6,3.6,10.4,5.5,15.6,5.5
	c7.7,0,13.6-3.8,13.6-11.6v-0.1c0-6.6-6.1-9.1-11.4-10.7c-4.3-1.4-8.3-2.5-8.3-5.2v-0.1c0-2.1,1.9-3.6,5.1-3.6
	c3.1,0,6.8,1.3,10.4,3.5l3.3-6c-3.9-2.6-8.9-4.2-13.5-4.2c-7.3,0-13.1,4.2-13.1,11.2v0.1c0,7,6.1,9.3,11.5,10.8
	c4.3,1.3,8.2,2.3,8.2,5.2v0.1c0,2.4-2.1,4-5.7,4c-3.8,0-8-1.5-12-4.5L324.1,315.5 M546.6,255.4h14v-11.2h-14V255.4z M547.2,320.4h13
	v-56.8h-13V320.4z M368.8,320.4h34.9c16.8,0,27.9-7.2,27.9-20.7v-0.2c0-10.2-6.1-15.3-15-18.3c5.6-2.9,10.8-7.7,10.8-16.8v-0.2
	c0-5.1-1.7-9.1-5.1-12.5c-4.3-4.3-11.1-6.7-19.7-6.7h-33.8V320.4z M414.1,266.6c0,6.9-5.7,10.2-14.2,10.2h-18.1v-20h19
	c8.5,0,13.2,3.7,13.2,9.6V266.6z M402.8,288c10.4,0,15.5,3.8,15.5,10.1v0.2c0,6.8-5.5,10.3-14.5,10.3h-22V288H402.8 M443.2,320.4h13
	v-21.6c0-15.1,8-22.5,19.4-22.5h0.8v-13.8c-10-0.4-16.6,5.4-20.1,13.9v-12.8h-13V320.4z M481.2,304c0,11.4,9.5,17.5,20.1,17.5
	c8.7,0,14.6-3.7,18.5-8.3v7.1h12.7v-33.7c0-7.4-1.9-13.5-6.1-17.5c-4-4.1-10.3-6.3-18.8-6.3c-9,0-15.2,1.8-21.4,4.6l3.4,10.2
	c5.2-2.2,9.9-3.5,16.3-3.5c9.1,0,14.1,4.3,14.1,12.4v1.4c-4.4-1.4-8.9-2.4-15.3-2.4c-13.9,0-23.5,6-23.5,18.3V304 M520.2,299.9
	c0,7.2-6.6,12.2-15.2,12.2c-6.2,0-11.1-3.1-11.1-8.6v-0.2c0-5.9,5-9.5,13.3-9.5c5.2,0,9.6,1,12.9,2.3V299.9 M575.4,320.4h13v-32.1
	c0-8.8,5.3-14.1,12.8-14.1c7.7,0,12.2,5.1,12.2,13.9v32.3h13v-36.3c0-13.1-7.4-21.7-20.2-21.7c-8.8,0-14.1,4.6-17.8,9.9v-8.7h-13
	V320.4z"/>
</svg>
