<?xml version="1.0" encoding="UTF-8" standalone="no"?>
<!-- Generator: Adobe Illustrator 19.2.1, SVG Export Plug-In . SVG Version: 6.00 Build 0)  -->

<svg
   version="1.1"
   id="layer"
   x="0px"
   y="0px"
   viewBox="0 0 604 175"
   xml:space="preserve"
   sodipodi:docname="paris-brain-institute-icm-logo-vector.svg"
   inkscape:version="1.2.2 (b0a8486, 2022-12-01)"
   width="604"
   height="175"
   xmlns:inkscape="http://www.inkscape.org/namespaces/inkscape"
   xmlns:sodipodi="http://sodipodi.sourceforge.net/DTD/sodipodi-0.dtd"
   xmlns="http://www.w3.org/2000/svg"
   xmlns:svg="http://www.w3.org/2000/svg"><defs
   id="defs11" /><sodipodi:namedview
   id="namedview9"
   pagecolor="#ffffff"
   bordercolor="#000000"
   borderopacity="0.25"
   inkscape:showpageshadow="2"
   inkscape:pageopacity="0.0"
   inkscape:pagecheckerboard="0"
   inkscape:deskcolor="#d1d1d1"
   showgrid="false"
   inkscape:zoom="0.62162861"
   inkscape:cx="361.95245"
   inkscape:cy="366.77849"
   inkscape:window-width="1680"
   inkscape:window-height="950"
   inkscape:window-x="0"
   inkscape:window-y="25"
   inkscape:window-maximized="1"
   inkscape:current-layer="layer" />
<style
   type="text/css"
   id="style2">
	.st0{fill:#EA550A;}
	.st1{fill:#282D7F;}
</style>
<path
   class="st0"
   d="m 94.68095,134.14407 c -2.6,0 -4.7,-2 -4.7,-4.4 v -29.6 c 0,-2.400002 2.1,-4.400002 4.7,-4.400002 h 25.1 v -20.1 c 0,-2.4 2.1,-4.4 4.7,-4.4 h 5.5 l -13.6,-34.5 c -6.4,-16.7 -26.7,-27.0000002 -41.8,-27.0000002 -2.6,0 -4.6,-2 -4.6,-4.4 0,-2.4 2.1,-4.4 4.6,-4.4 18.7,0 42.7,12.2000002 50.6,32.7000002 l 15.9,40.3 c 0.5,1.3 0.3,2.8 -0.5,4 -0.9,1.2 -2.3,1.9 -3.8,1.9 h -7.5 v 20.200002 c 0,2.4 -2.1,4.4 -4.7,4.4 H 99.480955 v 25.2 c -0.1,2.5 -2.2,4.5 -4.800005,4.5 m 4.700005,-81.900002 c -1.9,-13.7 -9.700005,-23.8 -22.700005,-29.3 -8.8,-3.7 -17,-4 -18.5,-4.1 -1.7,-0.1 -13.6,-0.9 -26.1,2.5 -18.3,5 -28.9,16.5 -30.5,33.1 -0.2,1.3 -1.00000004,7.1 1.3,14.4 2.3,7.2 8.2,17.1 23.3,23.6 10.9,4.7 17.7,13.800002 20.3,26.800002 2,10.2 0.5,19.1 0.5,19.2 0,0 0,0.1 0,0.1 0,0.1 -1.7,11.9 -5.7,26.6 -0.7,2.4 0.8,4.9 3.2,5.6 0.4,0.1 0.8,0.2 1.2,0.2 2,0 3.8,-1.3 4.4,-3.3 4,-14.9 5.7,-26.5 5.9,-27.6 0.2,-1 1.7,-10.8 -0.5,-22.1 -3.1,-16.1 -11.9,-27.700002 -25.6,-33.700002 -22.2000001,-9.7 -19.5,-27.2 -19.3,-28.2 v 0 c 0,0 0,0 0,0 0,-0.1 0,-0.2 0,-0.2 0,-0.1 0,-0.1 0,-0.2 1.2,-12.8 9.1,-21.4 23.7,-25.4 11.6,-3.2 23.2,-2.3 23.3,-2.3 0.1,0 0.3,0 0.4,0 1.2,0 28.9,0.5 32.4,25.6 0.8,5.9 -0.4,10.6 -3.7,14.5 -8.7,10.3 -28.6,11.1 -28.9,11.1 -2.5,0.1 -4.5,2.2 -4.4,4.7 0.1,2.5 2.1,4.4 4.5,4.4 0,0 0.1,0 0.1,0 1,0 24.2,-0.9 35.5,-14.3 5.100005,-6 7,-13.3 5.900005,-21.7"
   id="path4" />
<path
   class="st1"
   d="m 71.08095,145.54407 h 5.7 v 25.9 h -5.7 z m 34.7,3.1 c -0.6,-0.7 -1.2,-1.3 -1.9,-1.8 -0.7,-0.5 -1.4,-0.9 -2.2,-1.2 -0.8,-0.3 -1.5,-0.5 -2.299995,-0.6 -0.8,-0.1 -1.6,-0.2 -2.3,-0.2 -2.000005,0 -3.900005,0.3 -5.600005,1 -1.7,0.6 -3.2,1.5 -4.4,2.7 -1.2,1.2 -2.2,2.6 -2.9,4.3 -0.7,1.7 -1,3.6 -1,5.6 0,2.1 0.3,3.9 1,5.6 0.7,1.7 1.7,3.1 2.9,4.3 1.2,1.2 2.7,2.1 4.4,2.7 1.7,0.6 3.6,1 5.600005,1 1.8,0 3.499995,-0.4 5.199995,-1.1 1.7,-0.7 3.1,-1.9 4.2,-3.4 l -4.7,-3.5 c -0.6,0.9 -1.3,1.6 -2.199995,2 -0.9,0.5 -1.9,0.7 -3.100005,0.7 -1,0 -2,-0.2 -2.9,-0.6 -0.9,-0.4 -1.7,-1 -2.3,-1.7 -0.7,-0.7 -1.2,-1.6 -1.6,-2.6 -0.4,-1 -0.6,-2.1 -0.6,-3.3 0,-1.2 0.2,-2.3 0.6,-3.3 0.4,-1 0.9,-1.9 1.6,-2.6 0.7,-0.7 1.5,-1.3 2.4,-1.7 0.9,-0.4 1.9,-0.6 3,-0.6 1.100005,0 2.000005,0.2 2.800005,0.5 0.799995,0.4 1.499995,0.9 2.099995,1.6 z m 6.3,22.8 h 5.7 v -19.8 h 0.1 l 6.5,19.8 h 4.3 l 6.8,-19.8 h 0.1 v 19.8 h 5.7 v -25.9 h -8.6 l -6,16.9 v 0 l -6,-16.9 h -8.6 z m 103.1,-73.400002 h -12.8 v 72.900002 h 12.8 z m 27.6,42.200002 c 0,-4.3 1.1,-7.6 3.4,-9.9 2.2,-2.4 5.2,-3.6 8.8,-3.6 3.7,0 6.5,1.2 8.5,3.5 2,2.3 3,5.6 3,9.8 v 30.9 h 12.6 v -34.7 c 0,-6.4 -1.7,-11.5 -5,-15.3 -3.4,-3.8 -8.1,-5.7 -14.3,-5.7 -2.1,0 -4,0.3 -5.7,0.8 -1.7,0.5 -3.2,1.2 -4.6,2.1 -1.4,0.9 -2.6,1.9 -3.7,3.1 -1.1,1.1 -2,2.4 -2.9,3.7 v -8.6 h -12.6 v 54.6 h 12.6 v -30.7 z m 87.1,22.1 c 1,-2.1 1.5,-4.7 1.5,-7.5 v -0.2 c 0,-2.5 -0.5,-4.6 -1.5,-6.3 -1,-1.7 -2.4,-3.2 -4,-4.4 -1.6,-1.2 -3.4,-2.2 -5.4,-3 -2,-0.8 -4,-1.6 -6,-2.2 -1.6,-0.5 -3.1,-1 -4.6,-1.5 -1.5,-0.5 -2.8,-1.1 -3.9,-1.7 -1.1,-0.6 -2,-1.2 -2.7,-2 -0.7,-0.7 -1,-1.6 -1,-2.5 v -0.2 c 0,-1.6 0.7,-2.9 2,-3.9 1.4,-1 3.2,-1.5 5.6,-1.5 2.3,0 4.8,0.5 7.4,1.4 2.7,0.9 5.3,2.2 8,3.8 l 5,-8.9 c -2.9,-1.9 -6.1,-3.4 -9.6,-4.5 -3.5,-1.1 -7,-1.7 -10.4,-1.7 -2.7,0 -5.2,0.4 -7.6,1.1 -2.4,0.8 -4.5,1.9 -6.2,3.3 -1.8,1.5 -3.1,3.2 -4.1,5.3 -1,2.1 -1.5,4.4 -1.5,6.9 v 0.2 c 0,2.6 0.5,4.8 1.5,6.6 1,1.8 2.4,3.2 4,4.4 1.6,1.2 3.4,2.2 5.5,2.9 2,0.8 4,1.4 6.1,2.1 1.6,0.5 3.1,1 4.6,1.4 1.5,0.4 2.8,1 3.9,1.6 1.1,0.6 2,1.3 2.7,2 0.7,0.8 1,1.6 1,2.7 v 0.2 c 0,1.8 -0.7,3.2 -2.2,4.3 -1.5,1.1 -3.6,1.6 -6.2,1.6 -2.8,0 -5.8,-0.6 -8.8,-1.7 -3.1,-1.1 -6.1,-2.8 -9,-5 l -5.6,8.5 c 3.4,2.7 7.2,4.7 11.2,6.1 4,1.4 8,2.1 11.9,2.1 2.8,0 5.5,-0.4 8,-1.1 2.5,-0.7 4.6,-1.8 6.5,-3.2 1.4,-1.6 2.9,-3.4 3.9,-5.5 m 13.5,-6.5 c 0,3 0.4,5.6 1.1,7.6 0.8,2 1.9,3.7 3.3,4.9 1.4,1.2 3.1,2.1 5.1,2.7 1.9,0.6 4,0.8 6.3,0.8 2.3,0 4.4,-0.2 6.2,-0.7 1.8,-0.5 3.5,-1.2 5.1,-2.1 v -10.2 c -2.5,1.2 -5.1,1.9 -7.8,1.9 -2.1,0 -3.8,-0.5 -5,-1.6 -1.2,-1.1 -1.8,-2.8 -1.8,-5.2 v -26.8 h 14.8 v -10.6 h -14.7 v -12.9 h -12.6 z m 41.8,-47.8 h 13.5 V 97.144068 h -13.5 z m 0.5,62.9 h 12.6 v -54.6 h -12.6 z m 27.1,-15.1 c 0,3 0.4,5.6 1.1,7.6 0.8,2 1.9,3.7 3.3,4.9 1.4,1.2 3.1,2.1 5.1,2.7 1.9,0.6 4,0.8 6.3,0.8 2.3,0 4.4,-0.2 6.2,-0.7 1.8,-0.5 3.5,-1.2 5.1,-2.1 v -10.2 c -2.5,1.2 -5.1,1.9 -7.8,1.9 -2.1,0 -3.8,-0.5 -5,-1.6 -1.2,-1.1 -1.8,-2.8 -1.8,-5.2 v -26.8 h 14.7 v -10.6 h -14.7 v -12.9 h -12.6 v 52.2 z m 75.5,-8.8 c 0,4.3 -1.1,7.6 -3.4,9.9 -2.2,2.4 -5.2,3.6 -8.8,3.6 -3.7,0 -6.5,-1.1 -8.5,-3.4 -2,-2.3 -3,-5.6 -3,-9.8 v -30.9 h -12.6 v 34.7 c 0,6.4 1.7,11.5 5,15.3 3.4,3.8 8.1,5.7 14.3,5.7 4.2,0 7.6,-1 10.3,-2.9 2.7,-1.9 4.9,-4.2 6.7,-6.8 v 8.6 h 12.6 v -54.6 h -12.6 z m 26.6,8.8 c 0,3 0.4,5.6 1.1,7.6 0.8,2 1.9,3.7 3.3,4.9 1.4,1.2 3.1,2.1 5.1,2.7 1.9,0.6 4,0.8 6.3,0.8 2.3,0 4.4,-0.2 6.2,-0.7 1.8,-0.5 3.5,-1.2 5.1,-2.1 v -10.2 c -2.5,1.2 -5.1,1.9 -7.8,1.9 -2.1,0 -3.8,-0.5 -5,-1.6 -1.2,-1.1 -1.8,-2.8 -1.8,-5.2 v -26.8 h 14.7 v -10.6 h -14.7 v -12.9 h -12.6 v 52.2 z m 51.5,2.3 c -2.8,-2.4 -4.6,-5.8 -5.4,-10.3 h 40.1 c 0.1,-0.6 0.1,-1.2 0.2,-1.8 0,-0.5 0.1,-1.1 0.1,-1.7 0,-3.9 -0.6,-7.7 -1.7,-11.3 -1.1,-3.6 -2.7,-6.7 -4.9,-9.4 -2.2,-2.7 -4.9,-4.8 -8.2,-6.4 -3.3,-1.6 -7.1,-2.4 -11.4,-2.4 -3.9,0 -7.5,0.8 -10.7,2.3 -3.2,1.5 -6.1,3.6 -8.4,6.1 -2.4,2.6 -4.2,5.6 -5.5,9 -1.3,3.4 -2,7.1 -2,11.1 0,4.3 0.7,8.1 2.2,11.6 1.5,3.5 3.4,6.5 6,8.9 2.5,2.5 5.5,4.4 8.9,5.8 3.4,1.4 7.1,2.1 11,2.1 5,0 9.4,-0.9 13,-2.8 3.6,-1.9 6.7,-4.3 9.4,-7.4 l -7.3,-6.5 c -2.2,2.1 -4.4,3.8 -6.7,4.8 -2.3,1.1 -5,1.7 -8.1,1.7 -4.3,0.2 -7.8,-1 -10.6,-3.4 m -5.5,-18.5 c 0.5,-4.3 2.1,-7.7 4.6,-10.4 2.5,-2.7 5.7,-4 9.6,-4 2.1,0 3.9,0.4 5.5,1.1 1.6,0.8 3,1.8 4.2,3 1.2,1.3 2.1,2.8 2.8,4.5 0.7,1.8 1.1,3.6 1.4,5.6 h -28.1 z m -277.8,-101.700002 h 9 v -7.3 h -9 z m 0.3,42 h 8.4 v -36.7 h -8.4 z m -110.2,0 h 8.6 v -15.7 h 9.7 c 10.7,0 19.5,-5.7 19.5,-16.6 v -0.1 c 0,-9.8 -7.1,-16.3 -18.5,-16.3 h -19.2 v 48.7 z m 8.6,-23.3 v -17.5 h 10 c 6.4,0 10.5,3 10.5,8.7 v 0.1 c 0,5.1 -4,8.7 -10.5,8.7 z m 58.4,-9.8 c 2.7,2.6 4,6.5 4,11.3 v 21.8 h -8.2 v -4.6 c -2.5,3 -6.3,5.4 -12,5.4 -6.9,0 -13,-4 -13,-11.3 v -0.1 c 0,-7.9 6.2,-11.8 15.2,-11.8 4.1,0 7,0.6 9.9,1.5 v -0.9 c 0,-5.2 -3.2,-8 -9.1,-8 -4.1,0 -7.1,0.9 -10.5,2.3 0.9,-2.4 1.4,-5.1 1.5,-8 2.9,-1 6.1,-1.5 10.1,-1.5 5.4,-0.2 9.5,1.3 12.1,3.9 m -4,17.4 c -2.2,-0.8 -5,-1.5 -8.4,-1.5 -5.4,0 -8.6,2.3 -8.6,6.1 v 0.1 c 0,3.5 3.1,5.6 7.2,5.6 5.6,0 9.8,-3.2 9.8,-7.9 z m 18.1,15.7 h 8.4 v -14 c 0,-9.7 5.1,-14.5 12.5,-14.5 h 0.5 v -8.9 c -6.5,-0.3 -10.7,3.5 -13,9 v -8.3 h -8.4 z m 44.5,-4.8 c 4.6,3.6 10.4,5.5 15.6,5.5 7.7,0 13.6,-3.8 13.6,-11.6 v -0.1 c 0,-6.6 -6.1,-9.1 -11.4,-10.7 -4.3,-1.4 -8.3,-2.5 -8.3,-5.2 v -0.1 c 0,-2.1 1.9,-3.6 5.1,-3.6 3.1,0 6.8,1.3 10.4,3.5 l 3.3,-6 c -3.9,-2.6 -8.9,-4.2 -13.5,-4.2 -7.3,0 -13.1,4.2 -13.1,11.2 v 0.1 c 0,7 6.1,9.3 11.5,10.8 4.3,1.3 8.2,2.3 8.2,5.2 v 0.1 c 0,2.4 -2.1,4 -5.7,4 -3.8,0 -8,-1.5 -12,-4.5 l -3.7,5.6 m 222.5,-60.1 h 14 V 3.8440678 h -14 z m 0.6,65 h 13 v -56.8 h -13 z m -178.4,0 h 34.9 c 16.8,0 27.9,-7.2 27.9,-20.7 v -0.2 c 0,-10.2 -6.1,-15.3 -15,-18.3 5.6,-2.9 10.8,-7.7 10.8,-16.8 v -0.2 c 0,-5.1 -1.7,-9.1 -5.1,-12.5 -4.3,-4.3000002 -11.1,-6.7000002 -19.7,-6.7000002 h -33.8 z m 45.3,-53.8 c 0,6.9 -5.7,10.2 -14.2,10.2 h -18.1 v -20 h 19 c 8.5,0 13.2,3.7 13.2,9.6 v 0.2 z m -11.3,21.4 c 10.4,0 15.5,3.8 15.5,10.1 v 0.2 c 0,6.8 -5.5,10.3 -14.5,10.3 h -22 v -20.6 h 21 m 40.4,32.4 h 13 v -21.6 c 0,-15.1 8,-22.5 19.4,-22.5 h 0.8 v -13.8 c -10,-0.4 -16.6,5.4 -20.1,13.9 v -12.8 h -13 v 56.8 z m 38,-16.4 c 0,11.4 9.5,17.5 20.1,17.5 8.7,0 14.6,-3.7 18.5,-8.3 v 7.1 h 12.7 v -33.7 c 0,-7.4 -1.9,-13.5 -6.1,-17.5 -4,-4.1 -10.3,-6.3 -18.8,-6.3 -9,0 -15.2,1.8 -21.4,4.6 l 3.4,10.2 c 5.2,-2.2 9.9,-3.5 16.3,-3.5 9.1,0 14.1,4.3 14.1,12.4 v 1.4 c -4.4,-1.4 -8.9,-2.4 -15.3,-2.4 -13.9,0 -23.5,6 -23.5,18.3 v 0.2 m 39,-4.1 c 0,7.2 -6.6,12.2 -15.2,12.2 -6.2,0 -11.1,-3.1 -11.1,-8.6 v -0.2 c 0,-5.9 5,-9.5 13.3,-9.5 5.2,0 9.6,1 12.9,2.3 v 3.8 m 55.3,20.5 h 13 v -32.1 c 0,-8.8 5.3,-14.1 12.8,-14.1 7.7,0 12.2,5.1 12.2,13.9 v 32.3 h 13 v -36.3 c 0,-13.1 -7.4,-21.7 -20.2,-21.7 -8.8,0 -14.1,4.6 -17.8,9.9 v -8.7 h -13 z"
   id="path6" />
</svg>
