<?xml version="1.0" encoding="utf-8"?>
<!-- Generator: Adobe Illustrator 25.4.0, SVG Export Plug-In . SVG Version: 6.00 Build 0)  -->
<svg version="1.1" id="Illustration" xmlns="http://www.w3.org/2000/svg" xmlns:xlink="http://www.w3.org/1999/xlink" x="0px"
	 y="0px" viewBox="0 0 3710 3710" style="enable-background:new 0 0 3710 3710;" xml:space="preserve">
<style type="text/css">
	.st0{fill:#3FA9F5;}
	.st1{fill:url(#SVGID_1_);}
	.st2{opacity:0.3;fill:#1B1464;}
	.st3{fill:url(#SVGID_00000140003191087527921570000016275858710174747277_);}
	.st4{fill:#F4F7FA;}
	.st5{fill:url(#SVGID_00000013886608832009527920000006812526057481986999_);}
	.st6{fill:#D8DEE8;}
	.st7{fill:url(#SVGID_00000034057356590755014450000001623999848453981839_);}
</style>
<g>
	<path class="st0" d="M1180.64,3175.38c239.01,471.71,564.02,521.82,659.86,526.59v0.38c0,0-2.79,0.23,4.36,0.08
		c7.15,0.15,4.36-0.08,4.36-0.08v-0.38c87.13-3.92,313.33-38.81,527.83-316.4c45.27-58.56,90.15-127.96,131.8-210.19
		c277.66-547.95,75.77-830.15,75.77-830.15l-735.4-1.77v-0.08l-4.36,0.08l-4.36-0.08v0.08l-313.34,0.77l-423.3,1
		C1103.86,2345.23,902.97,2627.43,1180.64,3175.38z"/>
	
		<linearGradient id="SVGID_1_" gradientUnits="userSpaceOnUse" x1="3603.1223" y1="1678.2261" x2="3608.2468" y2="2877.1091" gradientTransform="matrix(-1 0 0 1 5449.73 0)">
		<stop  offset="0" style="stop-color:#444B8C"/>
		<stop  offset="0.9964" style="stop-color:#26264F"/>
	</linearGradient>
	<ellipse class="st1" cx="1843.71" cy="2356.66" rx="746.67" ry="94.57"/>
	<path class="st2" d="M1180.64,3175.38c239.01,471.71,564.02,521.82,659.86,526.59v0.38c0,0-2.79,0.23,4.36,0.08
		c7.15,0.15,4.36-0.08,4.36-0.08v-0.38c87.13-3.92,313.33-38.81,527.83-316.4c-1.23-255.61-594.29-429.29-779.58-547.8
		c-234.4-149.86-45.8-481.09-45.8-481.09c-9.07-4.3-17.91-8.45-26.74-12.45l-422.18,1
		C1102.74,2345.23,902.97,2627.43,1180.64,3175.38z"/>
	
		<linearGradient id="SVGID_00000056419481721558160070000007961965518034698649_" gradientUnits="userSpaceOnUse" x1="2080.637" y1="1027.6559" x2="2859.3499" y2="1027.6559" gradientTransform="matrix(-1 0 0 1 5449.73 0)">
		<stop  offset="0" style="stop-color:#444B8C"/>
		<stop  offset="0.9964" style="stop-color:#26264F"/>
	</linearGradient>
	
		<ellipse style="fill:url(#SVGID_00000056419481721558160070000007961965518034698649_);" cx="2979.74" cy="1027.66" rx="389.36" ry="498.21"/>
	<path class="st0" d="M520.77,1139.9c0,619.81,613.2,1122.18,1369.57,1122.18c116.2,0,228.94-11.83,336.68-34.2
		c593.6-122.89,1032.89-563.4,1032.89-1087.99c0-619.73-613.2-1122.18-1369.57-1122.18c-212.5,0-413.69,39.65-593.22,110.43
		C837.79,309.29,520.77,694.31,520.77,1139.9z"/>
	<path class="st4" d="M2804.92,1652.15l-1055.99,92.16c-233.44,20.37-434.82-162.24-442.98-410.45l-8.71-264.85
		c-3.75-113.93,83.48-208.95,193.36-211.79l1505.36-38.82c87.42-2.25,157.46,77.2,157.46,177.13v232.49
		C3153.42,1446.14,2999.65,1635.15,2804.92,1652.15z"/>
	
		<linearGradient id="SVGID_00000145747002432934508770000013931089347195605678_" gradientUnits="userSpaceOnUse" x1="2941.9617" y1="1251.7062" x2="4639.8057" y2="1251.7062" gradientTransform="matrix(1 0 0 1 -1560.3822 0)">
		<stop  offset="0" style="stop-color:#444B8C"/>
		<stop  offset="0.9964" style="stop-color:#26264F"/>
	</linearGradient>
	<path style="fill:url(#SVGID_00000145747002432934508770000013931089347195605678_);" d="M2830.27,1500.69l-1129.92,83.18
		c-166.87,12.28-309.45-119.62-314.99-295.87l-3.68-116.98c-3.55-113.03,82.72-207.71,191.26-211.03l1347.03-41.18
		c88.33-2.7,159.18,76.68,159.32,176.94l0.14,103.81C3079.63,1356.08,2969.23,1490.46,2830.27,1500.69z"/>
	<path class="st6" d="M2167.83,1399.47c10.63-17.48,17.07-36.78,16.72-57.19c-1.14-66.15-67.43-116.59-148.9-112.47
		c-82.41,4.16-148.68,62.42-147.16,129.94c0.47,20.83,7.94,39.67,19.68,56.07L2167.83,1399.47z"/>
	<path class="st6" d="M2863.12,1355.68c9.8-16.6,15.84-34.95,15.74-54.36c-0.31-62.93-59.62-111.07-133.2-107.36
		c-74.38,3.76-134.78,58.96-134.16,123.13c0.19,19.8,6.72,37.73,17.11,53.36L2863.12,1355.68z"/>
	<path class="st2" d="M520.77,1139.9c0,619.81,613.2,1122.18,1369.57,1122.18c116.2,0,228.94-11.83,336.68-34.2
		c106.52-336.22-495.46-704.96-841.68-939.89c-424.14-287.81-88.22-1159.84-88.22-1159.84
		C837.79,309.29,520.77,694.31,520.77,1139.9z"/>
	
		<linearGradient id="SVGID_00000126305126039263570190000001410324158778016948_" gradientUnits="userSpaceOnUse" x1="4352.6943" y1="1223.0415" x2="5131.4072" y2="1223.0415" gradientTransform="matrix(-1 0 0 1 5449.73 0)">
		<stop  offset="0" style="stop-color:#444B8C"/>
		<stop  offset="0.9964" style="stop-color:#26264F"/>
	</linearGradient>
	
		<ellipse style="fill:url(#SVGID_00000126305126039263570190000001410324158778016948_);" cx="707.68" cy="1223.04" rx="389.36" ry="498.21"/>
</g>
</svg>
